<svg xmlns="http://www.w3.org/2000/svg" xmlns:xlink="http://www.w3.org/1999/xlink" width="816" zoomAndPan="magnify" viewBox="0 0 612 791.999994" height="1056" preserveAspectRatio="xMidYMid meet" version="1.0"><defs><clipPath id="47d8f55906"><path d="M 205.265625 162.511719 L 406.734375 162.511719 L 406.734375 363.980469 L 205.265625 363.980469 Z M 205.265625 162.511719 " clip-rule="nonzero"/></clipPath><clipPath id="dec32c2685"><path d="M 306 162.511719 C 250.363281 162.511719 205.265625 207.613281 205.265625 263.246094 C 205.265625 318.882812 250.363281 363.980469 306 363.980469 C 361.632812 363.980469 406.734375 318.882812 406.734375 263.246094 C 406.734375 207.613281 361.632812 162.511719 306 162.511719 Z M 306 162.511719 " clip-rule="nonzero"/></clipPath><clipPath id="69762d8756"><path d="M 205.265625 294.457031 L 406.734375 294.457031 L 406.734375 495.925781 L 205.265625 495.925781 Z M 205.265625 294.457031 " clip-rule="nonzero"/></clipPath><clipPath id="3212df3949"><path d="M 306 294.457031 C 250.363281 294.457031 205.265625 339.558594 205.265625 395.191406 C 205.265625 450.828125 250.363281 495.925781 306 495.925781 C 361.632812 495.925781 406.734375 450.828125 406.734375 395.191406 C 406.734375 339.558594 361.632812 294.457031 306 294.457031 Z M 306 294.457031 " clip-rule="nonzero"/></clipPath><clipPath id="4f99bcb224"><path d="M 205.265625 428.015625 L 406.734375 428.015625 L 406.734375 629.484375 L 205.265625 629.484375 Z M 205.265625 428.015625 " clip-rule="nonzero"/></clipPath><clipPath id="1ae8cc7d9f"><path d="M 306 428.015625 C 250.363281 428.015625 205.265625 473.113281 205.265625 528.75 C 205.265625 584.382812 250.363281 629.484375 306 629.484375 C 361.632812 629.484375 406.734375 584.382812 406.734375 528.75 C 406.734375 473.113281 361.632812 428.015625 306 428.015625 Z M 306 428.015625 " clip-rule="nonzero"/></clipPath></defs><g clip-path="url(#47d8f55906)"><g clip-path="url(#dec32c2685)"><path stroke-linecap="butt" transform="matrix(0.75, 0, 0, 0.75, 205.264065, 162.513557)" fill="none" stroke-linejoin="miter" d="M 134.314587 -0.00245065 C 60.132291 -0.00245065 0.00207994 60.132969 0.00207994 134.310056 C 0.00207994 208.492351 60.132291 268.622563 134.314587 268.622563 C 208.491674 268.622563 268.627093 208.492351 268.627093 134.310056 C 268.627093 60.132969 208.491674 -0.00245065 134.314587 -0.00245065 Z M 134.314587 -0.00245065 " stroke="#ffffff" stroke-width="26" stroke-opacity="1" stroke-miterlimit="4"/></g></g><g clip-path="url(#69762d8756)"><g clip-path="url(#3212df3949)"><path stroke-linecap="butt" transform="matrix(0.75, 0, 0, 0.75, 205.264065, 294.458969)" fill="none" stroke-linejoin="miter" d="M 134.314587 -0.00258418 C 60.132291 -0.00258418 0.00207994 60.132835 0.00207994 134.309922 C 0.00207994 208.492218 60.132291 268.622429 134.314587 268.622429 C 208.491674 268.622429 268.627093 208.492218 268.627093 134.309922 C 268.627093 60.132835 208.491674 -0.00258418 134.314587 -0.00258418 Z M 134.314587 -0.00258418 " stroke="#ffffff" stroke-width="26" stroke-opacity="1" stroke-miterlimit="4"/></g></g><g clip-path="url(#4f99bcb224)"><g clip-path="url(#1ae8cc7d9f)"><path stroke-linecap="butt" transform="matrix(0.75, 0, 0, 0.75, 205.264065, 428.014631)" fill="none" stroke-linejoin="miter" d="M 134.314587 0.00132565 C 60.132291 0.00132565 0.00207994 60.131537 0.00207994 134.313832 C 0.00207994 208.490919 60.132291 268.626339 134.314587 268.626339 C 208.491674 268.626339 268.627093 208.490919 268.627093 134.313832 C 268.627093 60.131537 208.491674 0.00132565 134.314587 0.00132565 Z M 134.314587 0.00132565 " stroke="#ffffff" stroke-width="26" stroke-opacity="1" stroke-miterlimit="4"/></g></g></svg>